<svg id="圖層_1" data-name="圖層 1" xmlns="http://www.w3.org/2000/svg" viewBox="0 0 54 54"><defs><style>.cls-1{fill:#fff;}.cls-2{fill:none;stroke:#fff;stroke-miterlimit:10;stroke-width:1.18px;}</style></defs><title>gototop</title><path class="cls-1" d="M15.56,33.23h-5V48.71H8.69V33.23h-5V31.5H15.56Z"/><path class="cls-1" d="M18.33,40.31a9.47,9.47,0,0,1,2.25-6.62,7.81,7.81,0,0,1,6.08-2.48,7.32,7.32,0,0,1,5.73,2.42,9,9,0,0,1,2.17,6.24,9.67,9.67,0,0,1-2.19,6.62,7.56,7.56,0,0,1-6,2.5,7.5,7.5,0,0,1-5.84-2.43A9,9,0,0,1,18.33,40.31Zm2-.18A7.88,7.88,0,0,0,22,45.26a5.37,5.37,0,0,0,4.4,2A5.7,5.7,0,0,0,31,45.37a7.75,7.75,0,0,0,1.64-5.21A8.09,8.09,0,0,0,31,34.86a5.5,5.5,0,0,0-4.48-1.91A5.56,5.56,0,0,0,22,35,7.8,7.8,0,0,0,20.32,40.13Z"/><path class="cls-1" d="M42.15,42.18v6.53H40.26V31.5h4.64a6.16,6.16,0,0,1,4.22,1.34,4.78,4.78,0,0,1,1.52,3.78,5.16,5.16,0,0,1-1.79,4.09,6.15,6.15,0,0,1-4.41,1.47Zm0-8.93v7.17h2.16a4.83,4.83,0,0,0,3.24-1,3.42,3.42,0,0,0,1.12-2.74q0-3.47-4.09-3.47Z"/><polyline class="cls-2" points="18.42 16.23 27.9 6.75 37.38 16.23"/></svg>