<?xml version="1.0" encoding="utf-8"?>
<!-- Generator: Adobe Illustrator 21.1.0, SVG Export Plug-In . SVG Version: 6.00 Build 0)  -->
<svg version="1.1" id="圖層_1" xmlns="http://www.w3.org/2000/svg" xmlns:xlink="http://www.w3.org/1999/xlink" x="0px" y="0px"
	 viewBox="0 0 40 60.1" style="enable-background:new 0 0 40 60.1;" xml:space="preserve">
<style type="text/css">
	.st0{fill:#666666;}
	.st1{fill:#999999;}
</style>
<path class="st0" d="M36.8,6.5c-0.5-1.1-1.2-2.2-2-3c-0.9-0.9-1.9-1.6-3-2C30.6,1,29.3,0.7,28,0.7c-1.3,0-2.6,0.3-3.7,0.9
	c-1.1,0.6-2.2,1.4-3,2.4c-0.2,0.3-0.5,0.6-0.7,0.9c-0.2-0.3-0.4-0.6-0.7-0.9c-0.9-1-1.9-1.8-3-2.4c-1.1-0.6-2.4-0.9-3.7-0.9
	c-1.3,0-2.6,0.3-3.7,0.8c-1.1,0.5-2.2,1.2-3,2c-0.9,0.9-1.6,1.9-2,3c-0.5,1.1-0.7,2.4-0.7,3.7c0,1.3,0.3,2.6,0.7,3.7
	c0.5,1.1,1.2,2.2,2,3c0.9,0.9,13,11.9,14.2,12.3c1.1-0.5,13.3-11.5,14.2-12.3c0.9-0.9,1.6-1.9,2-3c0.5-1.1,0.7-2.4,0.7-3.7
	C37.6,8.9,37.3,7.7,36.8,6.5z"/>
<path class="st1" d="M36.8,36.6c-0.5-1.1-1.2-2.2-2-3c-0.9-0.9-1.9-1.6-3-2c-1.1-0.5-2.4-0.8-3.7-0.8c-1.3,0-2.6,0.3-3.7,0.9
	c-1.1,0.6-2.2,1.4-3,2.4c-0.2,0.3-0.5,0.6-0.7,0.9c-0.2-0.3-0.4-0.6-0.7-0.9c-0.9-1-1.9-1.8-3-2.4c-1.1-0.6-2.4-0.9-3.7-0.9
	c-1.3,0-2.6,0.3-3.7,0.8c-1.1,0.5-2.2,1.2-3,2c-0.9,0.9-1.6,1.9-2,3c-0.5,1.1-0.7,2.4-0.7,3.7c0,1.3,0.3,2.6,0.7,3.7
	c0.5,1.1,1.2,2.2,2,3C7.3,48,19.4,59,20.6,59.4C21.7,59,33.9,48,34.8,47.1c0.9-0.9,1.6-1.9,2-3c0.5-1.1,0.7-2.4,0.7-3.7
	C37.6,39,37.3,37.8,36.8,36.6z"/>
</svg>
