<?xml version="1.0" encoding="utf-8"?>
<!-- Generator: Adobe Illustrator 21.1.0, SVG Export Plug-In . SVG Version: 6.00 Build 0)  -->
<svg version="1.1" id="圖層_1" xmlns="http://www.w3.org/2000/svg" xmlns:xlink="http://www.w3.org/1999/xlink" x="0px" y="0px"
	 viewBox="0 0 40 60.1" style="enable-background:new 0 0 40 60.1;" xml:space="preserve">
<style type="text/css">
	.st0{fill:#666666;}
	.st1{fill:#999999;}
</style>
<path class="st0" d="M33.9,9.6h-6.1h-1.1v-3c0-3.3-2.7-5.9-5.9-5.9c-3.3,0-5.9,2.7-5.9,5.9v3h-1.1H7.5c-0.3,0-0.5,0.2-0.4,0.6
	l4,16.4c0.2,0.9,1.2,1.7,2.2,1.7h14.9c0.9,0,1.9-0.7,2.2-1.7l4-16.4C34.4,9.8,34.2,9.6,33.9,9.6z M17.1,9.6v-3c0-2,1.6-3.6,3.6-3.6
	c2,0,3.6,1.6,3.6,3.6v3h-1.1H17.1z"/>
<path class="st1" d="M33.9,40.1h-6.1h-1.1v-3c0-3.3-2.7-5.9-5.9-5.9c-3.3,0-5.9,2.7-5.9,5.9v3h-1.1H7.5c-0.3,0-0.5,0.2-0.4,0.6
	l4,16.4c0.2,0.9,1.2,1.7,2.2,1.7h14.9c0.9,0,1.9-0.7,2.2-1.7l4-16.4C34.4,40.3,34.2,40.1,33.9,40.1z M17.1,40.1v-3
	c0-2,1.6-3.6,3.6-3.6c2,0,3.6,1.6,3.6,3.6v3h-1.1H17.1z"/>
</svg>
