<?xml version="1.0" encoding="utf-8"?>
<!-- Generator: Adobe Illustrator 21.1.0, SVG Export Plug-In . SVG Version: 6.00 Build 0)  -->
<svg version="1.1" id="圖層_1" xmlns="http://www.w3.org/2000/svg" xmlns:xlink="http://www.w3.org/1999/xlink" x="0px" y="0px"
	 viewBox="0 0 242 278" style="enable-background:new 0 0 242 278;" xml:space="preserve">
<style type="text/css">
	.st0{fill:#666666;}
	.st1{font-family:'MicrosoftJhengHeiBold';}
	.st2{font-size:25px;}
	.st3{letter-spacing:2;}
	.st4{fill:none;stroke:#666666;stroke-width:5.8427;stroke-linecap:round;stroke-miterlimit:10;}
	.st5{fill:none;stroke:#666666;stroke-width:6;stroke-miterlimit:10;}
	.st6{fill:none;stroke:#666666;stroke-width:6;stroke-linecap:round;stroke-miterlimit:10;}
	.st7{fill:none;stroke:#666666;stroke-width:5.8427;stroke-linecap:round;stroke-linejoin:round;stroke-miterlimit:10;}
	.st8{fill:none;stroke:#666666;stroke-width:6;stroke-linecap:round;stroke-linejoin:round;stroke-miterlimit:10;}
</style>
<g>
	<g>
		<text transform="matrix(1 0 0 1 63.0005 264.8916)"><tspan x="0" y="0" class="st0 st1 st2 st3">SORRY</tspan><tspan x="91.8" y="0" class="st0 st1 st2">~</tspan></text>
	</g>
</g>
<g>
	<g>
		<path class="st0" d="M177.3,90.3l28.5,17.7l-9.2-25.9l31.8-7.1l-26.4-8.8l18.1-14.6l-22.5,1.7l16.2-32.2l-29.2,21.7L180,23.2
			c0,0-7.7,10.3-12.5,16.3l-11.6-29.4l-2.7,33L142,39.3l7.9,10.9l-34.1,5.9L149,71.2l-13.2,14.3l16.3,0.5L140,118.5l24.9-25.2l9,25
			L177.3,90.3z M177.3,90.3"/>
	</g>
	<g>
		<line class="st4" x1="81.9" y1="170.5" x2="150.5" y2="170.5"/>
		<path class="st5" d="M146,172v13.8c0,4-4.3,9.2-11.5,9.2h-0.3c-7.2,0-11.3-5.2-11.3-9.2V172"/>
		<line class="st6" x1="135" y1="172" x2="135" y2="184"/>
	</g>
	<g>
		<g>
			<line class="st7" x1="77.4" y1="131.7" x2="94.9" y2="149.3"/>
			<line class="st7" x1="94.9" y1="131.7" x2="77.4" y2="149.3"/>
		</g>
		<g>
			<line class="st7" x1="137.3" y1="131.7" x2="154.8" y2="149.3"/>
			<line class="st7" x1="154.8" y1="131.7" x2="137.3" y2="149.3"/>
		</g>
	</g>
	<polyline class="st8" points="212.4,128.6 116.2,34 116,34 19.8,129.4 	"/>
	<polyline class="st8" points="50,121 50,210 182,210 182,121 	"/>
</g>
</svg>
