<?xml version="1.0" encoding="utf-8"?>
<!-- Generator: Adobe Illustrator 21.1.0, SVG Export Plug-In . SVG Version: 6.00 Build 0)  -->
<svg version="1.1" id="圖層_1" xmlns="http://www.w3.org/2000/svg" xmlns:xlink="http://www.w3.org/1999/xlink" x="0px" y="0px"
	 viewBox="0 0 242 278" style="enable-background:new 0 0 242 278;" xml:space="preserve">
<style type="text/css">
	.st0{fill:#666666;}
	.st1{font-family:'MicrosoftJhengHeiBold';}
	.st2{font-size:25px;}
	.st3{letter-spacing:2;}
	.st4{fill:none;stroke:#666666;stroke-width:6;stroke-linecap:round;stroke-linejoin:round;stroke-miterlimit:10;}
	.st5{fill:#FFFFFF;stroke:#666666;stroke-width:6;stroke-linecap:round;stroke-linejoin:round;stroke-miterlimit:10;}
</style>
<g>
	<g>
		<g>
			<text transform="matrix(1 0 0 1 82.5635 261.8916)"><tspan x="0" y="0" class="st0 st1 st2 st3">OOPS</tspan><tspan x="80.7" y="0" class="st0 st1 st2">~</tspan></text>
		</g>
	</g>
	<g>
		<g>
			<path class="st4" d="M183.6,97.8c0,36.1-29.3,65.3-65.3,65.3c-36.1,0-65.3-29.3-65.3-65.3c0-36.1,29.3-65.3,65.3-65.3
				C154.3,32.5,183.6,61.8,183.6,97.8z"/>
			<line class="st4" x1="158.6" y1="149.2" x2="207.1" y2="197.8"/>
		</g>
		<g>
			<g>
				<polyline class="st4" points="79.7,86.3 106.1,93.6 79.7,101.9 				"/>
				<polyline class="st4" points="161.5,86.3 135.1,93.6 161.5,101.9 				"/>
			</g>
			<path class="st4" d="M138.2,130c0,0-2.9-11-17.9-11h0.6c-15,0-17.9,12.2-17.9,12.2"/>
		</g>
		<path class="st4" d="M73.6,72.1c5.6-9.6,14.2-17.3,24.5-21.7"/>
		<path class="st5" d="M159,16c0,0,33,55.7,0,55.7C129,71.7,159,16,159,16"/>
	</g>
</g>
</svg>
