<svg id="圖層_1" data-name="圖層 1" xmlns="http://www.w3.org/2000/svg" viewBox="0 0 629.67 175.68"><defs><style>.cls-1{fill:#030000;}.cls-2{fill:#231815;}</style></defs><title>logo_life</title><path class="cls-1" d="M99.66,95.89,111.23,104c-.95,1.67-2.38,2.51-5.84,2.51H1.16l-.84-2.87h50.8V68.34H15l-.72-2.86H51.13V33h-28C17.62,43.41,11.18,52.24,3.9,58.56L2.23,57.25C11.18,46.16,19.52,26,24.29,5.49l12.52,3.7c-.47,1.43-1.31,2.15-4.41,2a170.57,170.57,0,0,1-7.75,19H51.13V1.79L64.61,3c-.12,1.9-1.55,2.74-5.49,3.22v24H86.54l6.09-7.52L104,30.53c-1,1.79-2.39,2.51-5.73,2.51H59.12V65.48H82.26l5.84-7.4,11.21,7.75c-1,1.79-2.39,2.5-5.73,2.5H59.12v35.3H93.58Z" transform="translate(-0.33 -1.43)"/><path class="cls-1" d="M173.84,34.11c14.67,1.55,19.32,7.63,19.32,11.92,0,2.63-1.79,4.65-4.06,4.65a5.35,5.35,0,0,1-3-1.07c-1.91-5.13-7.64-11.09-12.88-14.19Zm6.56,45c1.55,0,1.9,0,3.1-2.5.59-1,2.14-4.3,24-53.43l2.26.47C204.37,39,193.76,67.5,192,73.35a41.79,41.79,0,0,0-1.91,10.49c.12,5,3.1,10.26,3.1,19.2,0,1.9,0,9.66-6.68,9.66-2.15,0-3.46-2.15-3.82-6a96.73,96.73,0,0,0,1-12.29c0-11-2.39-12.52-8.59-12.76V79.07c4.06,0,5.37-.12,5.37-.12ZM179,3.23c15,2,19.79,8.47,19.79,13C198.77,19,197,21,194.59,21a4.89,4.89,0,0,1-3.1-1.07c-1.91-5.48-7.87-12-13.24-15.5Zm95,30.41,10.73,7.87c-1,1.78-2.38,2.5-5.72,2.5H247.9V68.7h16.81l3.58-4.77,10.49,7.39a9.8,9.8,0,0,1-5.13,2.5v35.06c0,.24-2.39,2.62-7.75,2.62v-7.63H221.79v5.84c0,.12-1.07,2.62-7.63,2.62V65l8.35,3.7H240V44H205.21l-.84-2.86H240V15.63C229.54,17.18,218.45,18.37,208,19l-.48-2.27c20.87-3,46.51-9.78,59.75-15.26l9.3,8.59a3.36,3.36,0,0,1-2.39.83,10.45,10.45,0,0,1-3.81-1C264,11.45,256.25,13,247.9,14.43V41.15h20.4Zm-8.11,37.93H221.79V101h44.13Z" transform="translate(-0.33 -1.43)"/><path class="cls-1" d="M344.62,43.05c19.92-9.3,43.05-27.19,49.73-41l15,2.86C409,6.2,407.59,6.8,404.49,7c12.76,11.21,34.7,21.34,54.62,27.31L459,36a10.69,10.69,0,0,0-7.76,7.27c-19.68-8-38.76-21.34-48.89-35.06-11.21,13.6-35.18,28.5-57.13,36.61Zm84.55,26.72H372.52c-1.79,13.6-7.51,29-24.32,40.07l-1.56-1.43c16.46-15.74,19.08-34.94,19.08-52V37.69l9.07,3.94H428.1l3.46-4.53,10,7A9.42,9.42,0,0,1,437,46.39V71.68c0,.36-2.5,2.62-7.87,2.62ZM373.36,57.13a92.8,92.8,0,0,1-.48,9.77h56.29V57.13Zm55.81-12.65H373.36v9.78h55.81Zm1.67,35.9,3.57-4.54,10.14,7A8.42,8.42,0,0,1,440,85v23.73c0,.24-2.39,2.39-8.11,2.39v-6H381.47v4.29c0,.24-1.31,2.75-8,2.75V76.57l8.59,3.82Zm-19-56.89,9.9,6.55c-.84,1.91-2.27,2.63-5.49,2.63H378.37l-.72-2.86h29.1Zm-30.41,78.82h50.45V83.25H381.47Z" transform="translate(-0.33 -1.43)"/><path class="cls-1" d="M537.7,21.59V48.42c0,19.55-.84,45.67-16.82,63.92l-1.79-1.19c10.25-18.6,11.09-41.5,11.09-62.61V14.79l9.06,3.93h34V1.79L586.47,3c-.12,1.79-1.55,2.62-5.61,3.22V18.72h32.2l5.73-7.39,10.85,7.75c-1,1.79-2.39,2.5-5.84,2.5Zm82,62.37L630,91.11c-.83,1.67-2.27,2.51-5.61,2.51H585.28v15.75c0,.24-1.19,2.86-7.63,2.86V93.62H537.1l-.83-2.86h41.39V80h-21v2.74c0,.24-1.19,2.62-7.39,2.62V44.84l8.11,3.58h20.28V37.92H542l-.72-2.86h36.38V24.21l11.56,1.07c-.12,1.44-1.07,2-3.94,2.39v7.39h24.45l5.24-6.8,10,7.16c-.95,1.79-2.26,2.5-5.6,2.5H585.28v10.5h20.28L609,44l9.66,6.92c-.6.83-2.51,1.79-4.53,2.15V81.82c0,.24-2.15,2.62-7.51,2.62V80H585.28V90.76h29.1ZM577.65,51.28h-21V62.61h21Zm-21,25.88h21V65.48h-21Zm50-25.88H585.28V62.61h21.35ZM585.28,77.16h21.35V65.48H585.28Z" transform="translate(-0.33 -1.43)"/><path class="cls-2" d="M5.94,142H9.36v31H22.54v3.3H5.94Z" transform="translate(-0.33 -1.43)"/><path class="cls-2" d="M48.94,142h3.43v34.26H48.94Z" transform="translate(-0.33 -1.43)"/><path class="cls-2" d="M81.68,142H98.84v3.35H85.1v10.73H98.84v3.36H85.1v16.81H81.68Z" transform="translate(-0.33 -1.43)"/><path class="cls-2" d="M126.28,142h19.64v3.35H129.71v10.73h16.06v3.36H129.71v13.46h16.06v3.35H126.28Z" transform="translate(-0.33 -1.43)"/><path class="cls-2" d="M171.36,142h3.52l7,24.69L191.7,142h.71l9.71,24.69L209.23,142h3.49l-9.84,34.26h-.64l-10.17-25.92-10.37,25.92h-.64Z" transform="translate(-0.33 -1.43)"/><path class="cls-2" d="M254.53,142l16,34.26h-3.7L261.43,165H246.67l-5.33,11.27h-3.82L253.7,142Zm-.43,7.28-5.87,12.4h11.71Z" transform="translate(-0.33 -1.43)"/><path class="cls-2" d="M297.47,142h6.83a41.26,41.26,0,0,1,7.73.47,8.8,8.8,0,0,1,5,3,8.56,8.56,0,0,1,1.91,5.66,9.11,9.11,0,0,1-1.31,4.92,8.23,8.23,0,0,1-3.77,3.21,17.19,17.19,0,0,1-6.75,1.11l12.32,15.9h-4.24l-12.32-15.9h-1.93v15.9h-3.43Zm3.43,3.35V157l5.9,0a14.64,14.64,0,0,0,5.07-.65,5.26,5.26,0,0,0,2.57-2.09,5.78,5.78,0,0,0,.92-3.2,5.54,5.54,0,0,0-.93-3.13,5.19,5.19,0,0,0-2.45-2,14.91,14.91,0,0,0-5-.61Z" transform="translate(-0.33 -1.43)"/><path class="cls-2" d="M347.72,142h19.63v3.35H351.14v10.73H367.2v3.36H351.14v13.46H367.2v3.35H347.72Z" transform="translate(-0.33 -1.43)"/><path class="cls-2" d="M394.68,142h3.42v14.37h17.44V142H419v34.26h-3.42V159.7H398.1v16.53h-3.42Z" transform="translate(-0.33 -1.43)"/><path class="cls-2" d="M511.8,142h3.42v20.68a43.52,43.52,0,0,0,.14,4.59,7.62,7.62,0,0,0,1.19,3.39,7,7,0,0,0,2.87,2.28,8.92,8.92,0,0,0,3.89.92,7.64,7.64,0,0,0,3.26-.73,7.26,7.26,0,0,0,2.61-2,8.11,8.11,0,0,0,1.53-3.1,25.58,25.58,0,0,0,.35-5.36V142h3.42v20.68a25.23,25.23,0,0,1-.89,7.42A10.11,10.11,0,0,1,530,175a10.26,10.26,0,0,1-6.51,2.1,12.47,12.47,0,0,1-7.1-2,9.54,9.54,0,0,1-4-5.24,27.61,27.61,0,0,1-.63-7.22Z" transform="translate(-0.33 -1.43)"/><path class="cls-2" d="M560.83,169.85l2.91-1.75q3.08,5.66,7.1,5.66a6.78,6.78,0,0,0,3.24-.8,5.63,5.63,0,0,0,2.31-2.15,5.56,5.56,0,0,0,.79-2.86,5.85,5.85,0,0,0-1.16-3.38,27.92,27.92,0,0,0-5.87-5.49,30.27,30.27,0,0,1-5.33-4.68,8.56,8.56,0,0,1-1.81-5.24,8,8,0,0,1,1.07-4.07,7.65,7.65,0,0,1,3-2.9,8.76,8.76,0,0,1,4.23-1.06,9,9,0,0,1,4.53,1.2,15.64,15.64,0,0,1,4.46,4.41l-2.8,2.12a13.37,13.37,0,0,0-3.29-3.38,5.7,5.7,0,0,0-3-.81,4.69,4.69,0,0,0-3.39,1.26,4.11,4.11,0,0,0-1.31,3.09,5.28,5.28,0,0,0,.47,2.17,8,8,0,0,0,1.7,2.28c.45.44,1.92,1.57,4.42,3.42a24.85,24.85,0,0,1,6.1,5.85,9.37,9.37,0,0,1,1.65,5.14,8.72,8.72,0,0,1-2.83,6.47,9.5,9.5,0,0,1-6.88,2.75,10.08,10.08,0,0,1-5.66-1.66A15.14,15.14,0,0,1,560.83,169.85Z" transform="translate(-0.33 -1.43)"/><path class="cls-2" d="M609.6,142h19.63v3.35H613v10.73H629.1v3.36H613v13.46H629.1v3.35H609.6Z" transform="translate(-0.33 -1.43)"/><path class="cls-2" d="M457.2,172.74l-11.73,3.75,7.7-8.8a17.86,17.86,0,1,1,4,5.05Zm-3.35-13.45a15,15,0,0,0,2.21,7.84l.53.88-2.44,2.79,3.76-1.2.6.57a15,15,0,1,0-4.66-10.87Z" transform="translate(-0.33 -1.43)"/></svg>