<?xml version="1.0" encoding="utf-8"?>
<!-- Generator: Adobe Illustrator 21.1.0, SVG Export Plug-In . SVG Version: 6.00 Build 0)  -->
<svg version="1.1" id="圖層_1" xmlns="http://www.w3.org/2000/svg" xmlns:xlink="http://www.w3.org/1999/xlink" x="0px" y="0px"
	 viewBox="0 0 40 60.1" style="enable-background:new 0 0 40 60.1;" xml:space="preserve">
<style type="text/css">
	.st0{fill:#5EA4A0;}
	.st1{fill:#1F6A76;}
</style>
<g>
	<path class="st0" d="M29.6,4.5h-4.9V2.8c0-0.9-0.7-1.7-1.6-1.7h-4.9c-0.9,0-1.6,0.8-1.6,1.7v1.7h-4.9c-0.9,0-1.6,0.8-1.6,1.7v1.7
		c0,0.9,0.7,1.7,1.6,1.7h18.1c0.9,0,1.6-0.8,1.6-1.7V6.2C31.3,5.2,30.5,4.5,29.6,4.5L29.6,4.5z M23.1,4.5h-4.9V3.6
		c0-0.5,0.4-0.8,0.8-0.8h3.3c0.5,0,0.8,0.4,0.8,0.8C23.1,3.6,23.1,4.5,23.1,4.5z M11.6,24.7c0,1.9,1.5,3.4,3.3,3.4h11.5
		c1.8,0,3.3-1.5,3.3-3.4V11.2H11.6V24.7z M23.9,13.7c0-0.5,0.4-0.8,0.8-0.8c0.5,0,0.8,0.4,0.8,0.8v10.1c0,0.5-0.4,0.8-0.8,0.8
		c-0.5,0-0.8-0.4-0.8-0.8V13.7z M19.8,13.7c0-0.5,0.4-0.8,0.8-0.8c0.5,0,0.8,0.4,0.8,0.8v10.1c0,0.5-0.4,0.8-0.8,0.8
		c-0.5,0-0.8-0.4-0.8-0.8V13.7z M15.7,13.7c0-0.5,0.4-0.8,0.8-0.8c0.5,0,0.8,0.4,0.8,0.8v10.1c0,0.5-0.4,0.8-0.8,0.8
		c-0.5,0-0.8-0.4-0.8-0.8V13.7z"/>
</g>
<g>
	<path class="st1" d="M29.6,34.4h-4.9v-1.7c0-0.9-0.7-1.7-1.6-1.7h-4.9c-0.9,0-1.6,0.8-1.6,1.7v1.7h-4.9c-0.9,0-1.6,0.8-1.6,1.7v1.7
		c0,0.9,0.7,1.7,1.6,1.7h18.1c0.9,0,1.6-0.8,1.6-1.7v-1.7C31.3,35.2,30.5,34.4,29.6,34.4L29.6,34.4z M23.1,34.4h-4.9v-0.8
		c0-0.5,0.4-0.8,0.8-0.8h3.3c0.5,0,0.8,0.4,0.8,0.8C23.1,33.6,23.1,34.4,23.1,34.4z M11.6,54.6c0,1.9,1.5,3.4,3.3,3.4h11.5
		c1.8,0,3.3-1.5,3.3-3.4V41.2H11.6V54.6z M23.9,43.7c0-0.5,0.4-0.8,0.8-0.8c0.5,0,0.8,0.4,0.8,0.8v10.1c0,0.5-0.4,0.8-0.8,0.8
		c-0.5,0-0.8-0.4-0.8-0.8V43.7z M19.8,43.7c0-0.5,0.4-0.8,0.8-0.8c0.5,0,0.8,0.4,0.8,0.8v10.1c0,0.5-0.4,0.8-0.8,0.8
		c-0.5,0-0.8-0.4-0.8-0.8V43.7z M15.7,43.7c0-0.5,0.4-0.8,0.8-0.8c0.5,0,0.8,0.4,0.8,0.8v10.1c0,0.5-0.4,0.8-0.8,0.8
		c-0.5,0-0.8-0.4-0.8-0.8V43.7z"/>
</g>
</svg>
